<svg width="26" height="21" viewBox="0 0 26 21" fill="none" xmlns="http://www.w3.org/2000/svg">
<path d="M15.7248 0.345006C15.965 0.409186 16.1698 0.566127 16.2943 0.781316C16.4188 0.996505 16.4527 1.25232 16.3886 1.49251L11.4223 20.03C11.3578 20.2704 11.2005 20.4753 10.985 20.5996C10.7694 20.724 10.5133 20.7576 10.2729 20.6931C10.0326 20.6287 9.82768 20.4713 9.70332 20.2558C9.57896 20.0402 9.54532 19.7841 9.60981 19.5438L14.5773 1.00626C14.6092 0.887314 14.6642 0.775824 14.7392 0.678153C14.8142 0.580482 14.9078 0.498545 15.0144 0.437023C15.1211 0.375501 15.2389 0.335598 15.361 0.319595C15.4831 0.303592 15.6071 0.311802 15.7261 0.343756M18.5536 4.16001C18.7198 3.97522 18.9527 3.86404 19.2009 3.85091C19.4492 3.83779 19.6925 3.92379 19.8773 4.09001L22.0486 6.04501C22.9698 6.87251 23.7323 7.56001 24.2573 8.18251C24.8073 8.83875 25.1998 9.54251 25.1998 10.4125C25.1998 11.2813 24.8086 11.985 24.2573 12.64C23.7323 13.2638 22.9698 13.9513 22.0486 14.7788L19.8773 16.7338C19.6925 16.9002 19.4491 16.9864 19.2008 16.9734C18.9524 16.9603 18.7194 16.8492 18.5529 16.6644C18.3865 16.4796 18.3003 16.2362 18.3133 15.9878C18.3263 15.7395 18.4375 15.5064 18.6223 15.34L20.7436 13.4313C21.7286 12.545 22.3923 11.9438 22.8223 11.4338C23.2348 10.9425 23.3248 10.6563 23.3248 10.4113C23.3248 10.1675 23.2348 9.88126 22.8223 9.39001C22.3923 8.87876 21.7286 8.2775 20.7436 7.39251L18.6223 5.48376C18.5306 5.4014 18.4561 5.30178 18.4029 5.1906C18.3498 5.07941 18.3191 4.95883 18.3126 4.83577C18.3061 4.71271 18.3239 4.58957 18.365 4.4734C18.4062 4.35723 18.4698 4.25031 18.5523 4.15876M7.37731 5.48376C7.56213 5.31733 7.67327 5.0843 7.68628 4.83594C7.69929 4.58757 7.6131 4.3442 7.44668 4.15938C7.28026 3.97456 7.04723 3.86342 6.79886 3.85041C6.55049 3.8374 6.30713 3.92358 6.1223 4.09001L3.95105 6.04501C3.0298 6.87251 2.2673 7.56001 1.7423 8.18251C1.1923 8.83875 0.799805 9.54251 0.799805 10.4125C0.799805 11.2813 1.19105 11.985 1.7423 12.64C2.2673 13.2638 3.0298 13.9513 3.95105 14.7788L6.1223 16.7338C6.30713 16.9002 6.55049 16.9864 6.79886 16.9734C7.04723 16.9603 7.28026 16.8492 7.44668 16.6644C7.6131 16.4796 7.69929 16.2362 7.68628 15.9878C7.67327 15.7395 7.56213 15.5064 7.37731 15.34L5.25605 13.4313C4.27105 12.545 3.60731 11.9438 3.1773 11.4338C2.7648 10.9425 2.6748 10.6563 2.6748 10.4113C2.6748 10.1675 2.7648 9.88126 3.1773 9.39001C3.60731 8.87876 4.27105 8.2775 5.25605 7.39251L7.37731 5.48376Z" fill="#465A69"/>
</svg>
