<svg width="23" height="28" viewBox="0 0 23 28" fill="none" xmlns="http://www.w3.org/2000/svg">
<path d="M-40 -217C-40 -218.105 -39.1046 -219 -38 -219H1350C1351.1 -219 1352 -218.105 1352 -217V761C1352 762.105 1351.1 763 1350 763H-38C-39.1046 763 -40 762.105 -40 761V-217Z" fill="white"/>
<path d="M-38 -218H1350V-220H-38V-218ZM1351 -217V761H1353V-217H1351ZM1350 762H-38V764H1350V762ZM-39 761V-217H-41V761H-39ZM-38 762C-38.5523 762 -39 761.552 -39 761H-41C-41 762.657 -39.6569 764 -38 764V762ZM1351 761C1351 761.552 1350.55 762 1350 762V764C1351.66 764 1353 762.657 1353 761H1351ZM1350 -218C1350.55 -218 1351 -217.552 1351 -217H1353C1353 -218.657 1351.66 -220 1350 -220V-218ZM-38 -220C-39.6568 -220 -41 -218.657 -41 -217H-39C-39 -217.552 -38.5523 -218 -38 -218V-220Z" fill="#DDDDDD"/>
<path d="M20.6875 1H1.9375C1.41895 1 1 1.41895 1 1.9375V26.3125C1 26.8311 1.41895 27.25 1.9375 27.25H20.6875C21.2061 27.25 21.625 26.8311 21.625 26.3125V1.9375C21.625 1.41895 21.2061 1 20.6875 1ZM3.10938 3.10938H19.5156V9.20312H3.10938V3.10938ZM19.5156 17.1719H3.10938V11.0781H19.5156V17.1719ZM19.5156 25.1406H3.10938V19.0469H19.5156V25.1406ZM5.21875 6.15625C5.21875 6.46705 5.34222 6.76512 5.56198 6.98489C5.78175 7.20466 6.07982 7.32812 6.39062 7.32812C6.70143 7.32812 6.9995 7.20466 7.21927 6.98489C7.43903 6.76512 7.5625 6.46705 7.5625 6.15625C7.5625 5.84545 7.43903 5.54738 7.21927 5.32761C6.9995 5.10784 6.70143 4.98438 6.39062 4.98438C6.07982 4.98438 5.78175 5.10784 5.56198 5.32761C5.34222 5.54738 5.21875 5.84545 5.21875 6.15625ZM5.21875 14.125C5.21875 14.4358 5.34222 14.7339 5.56198 14.9536C5.78175 15.1734 6.07982 15.2969 6.39062 15.2969C6.70143 15.2969 6.9995 15.1734 7.21927 14.9536C7.43903 14.7339 7.5625 14.4358 7.5625 14.125C7.5625 13.8142 7.43903 13.5161 7.21927 13.2964C6.9995 13.0766 6.70143 12.9531 6.39062 12.9531C6.07982 12.9531 5.78175 13.0766 5.56198 13.2964C5.34222 13.5161 5.21875 13.8142 5.21875 14.125ZM5.21875 22.0938C5.21875 22.4046 5.34222 22.7026 5.56198 22.9224C5.78175 23.1422 6.07982 23.2656 6.39062 23.2656C6.70143 23.2656 6.9995 23.1422 7.21927 22.9224C7.43903 22.7026 7.5625 22.4046 7.5625 22.0938C7.5625 21.7829 7.43903 21.4849 7.21927 21.2651C6.9995 21.0453 6.70143 20.9219 6.39062 20.9219C6.07982 20.9219 5.78175 21.0453 5.56198 21.2651C5.34222 21.4849 5.21875 21.7829 5.21875 22.0938Z" fill="#465A69"/>
</svg>
