<svg width="16" height="18" viewBox="0 0 16 18" fill="none" xmlns="http://www.w3.org/2000/svg">
<path fill-rule="evenodd" clip-rule="evenodd" d="M8.99998 2.25H6.99998C6.86737 2.25 6.74019 2.30926 6.64642 2.41475C6.55266 2.52024 6.49998 2.66332 6.49998 2.8125V3.375H9.49998V2.8125C9.49998 2.66332 9.4473 2.52024 9.35353 2.41475C9.25976 2.30926 9.13259 2.25 8.99998 2.25ZM11 3.375V2.8125C11 2.21576 10.7893 1.64347 10.4142 1.22151C10.0391 0.799553 9.53041 0.5625 8.99998 0.5625H6.99998C6.46954 0.5625 5.96084 0.799553 5.58576 1.22151C5.21069 1.64347 4.99998 2.21576 4.99998 2.8125V3.375H2.25098C2.05206 3.375 1.8613 3.46389 1.72065 3.62213C1.57999 3.78036 1.50098 3.99497 1.50098 4.21875C1.50098 4.44253 1.57999 4.65714 1.72065 4.81537C1.8613 4.97361 2.05206 5.0625 2.25098 5.0625H2.56298L2.87998 13.6406C2.91223 14.5107 3.24221 15.3332 3.80093 15.9359C4.35966 16.5387 5.10386 16.8752 5.87798 16.875H10.123C10.8969 16.8749 11.6409 16.5383 12.1994 15.9355C12.7579 15.3328 13.0877 14.5106 13.12 13.6406L13.438 5.0625H13.75C13.9489 5.0625 14.1397 4.97361 14.2803 4.81537C14.421 4.65714 14.5 4.44253 14.5 4.21875C14.5 3.99497 14.421 3.78036 14.2803 3.62213C14.1397 3.46389 13.9489 3.375 13.75 3.375H11ZM11.936 5.0625H4.06398L4.37898 13.5697C4.39498 14.0049 4.55991 14.4163 4.83929 14.7178C5.11866 15.0193 5.49084 15.1876 5.87798 15.1875H10.123C10.5099 15.1873 10.8819 15.0189 11.161 14.7174C11.4402 14.4159 11.605 14.0047 11.621 13.5697L11.936 5.0625ZM5.74998 7.3125V12.9375C5.74998 13.1613 5.82899 13.3759 5.96965 13.5341C6.1103 13.6924 6.30106 13.7812 6.49998 13.7812C6.69889 13.7812 6.88966 13.6924 7.03031 13.5341C7.17096 13.3759 7.24998 13.1613 7.24998 12.9375V7.3125C7.24998 7.08872 7.17096 6.87411 7.03031 6.71588C6.88966 6.55764 6.69889 6.46875 6.49998 6.46875C6.30106 6.46875 6.1103 6.55764 5.96965 6.71588C5.82899 6.87411 5.74998 7.08872 5.74998 7.3125ZM9.49998 6.46875C9.69889 6.46875 9.88965 6.55764 10.0303 6.71588C10.171 6.87411 10.25 7.08872 10.25 7.3125V12.9375C10.25 13.1613 10.171 13.3759 10.0303 13.5341C9.88965 13.6924 9.69889 13.7812 9.49998 13.7812C9.30106 13.7812 9.1103 13.6924 8.96965 13.5341C8.829 13.3759 8.74998 13.1613 8.74998 12.9375V7.3125C8.74998 7.08872 8.829 6.87411 8.96965 6.71588C9.1103 6.55764 9.30106 6.46875 9.49998 6.46875Z" fill="white"/>
</svg>
