<svg width="24" height="25" viewBox="0 0 24 25" fill="none" xmlns="http://www.w3.org/2000/svg">
<path d="M-44 -781C-44 -782.105 -43.1046 -783 -42 -783H1346C1347.1 -783 1348 -782.105 1348 -781V197C1348 198.105 1347.1 199 1346 199H-42C-43.1046 199 -44 198.105 -44 197V-781Z" fill="white"/>
<path d="M-42 -782H1346V-784H-42V-782ZM1347 -781V197H1349V-781H1347ZM1346 198H-42V200H1346V198ZM-43 197V-781H-45V197H-43ZM-42 198C-42.5523 198 -43 197.552 -43 197H-45C-45 198.657 -43.6569 200 -42 200V198ZM1347 197C1347 197.552 1346.55 198 1346 198V200C1347.66 200 1349 198.657 1349 197H1347ZM1346 -782C1346.55 -782 1347 -781.552 1347 -781H1349C1349 -782.657 1347.66 -784 1346 -784V-782ZM-42 -784C-43.6568 -784 -45 -782.657 -45 -781H-43C-43 -781.552 -42.5523 -782 -42 -782V-784Z" fill="#DDDDDD"/>
<path d="M4.76148 10.416L7.84182 11.7092C8.22366 10.9419 8.6438 10.1924 9.10224 9.46056C9.56127 8.7293 10.0654 8.02661 10.6146 7.3525L8.68239 6.96889C8.54627 6.94709 8.42135 6.95298 8.30763 6.98657C8.1939 7.02016 8.09225 7.08232 8.00269 7.17307L4.76148 10.416ZM8.83354 12.4958L12.3691 16.0314C13.3478 15.5829 14.3419 15.0161 15.3513 14.3308C16.3607 13.6455 17.3241 12.8441 18.2416 11.9266C19.5757 10.5925 20.6007 9.16092 21.3166 7.63181C22.0326 6.10269 22.4362 4.33787 22.5275 2.33734C20.5258 2.42986 18.7607 2.83379 17.2322 3.54915C15.7037 4.2645 14.2721 5.28951 12.9374 6.62418C12.0193 7.54224 11.218 8.50567 10.5332 9.51448C9.84853 10.5233 9.28196 11.5171 8.83354 12.4958ZM15.4627 9.40222C15.0897 9.02923 14.9035 8.58728 14.904 8.0764C14.9035 7.56551 15.0897 7.12357 15.4627 6.75057C15.8357 6.37757 16.2776 6.19137 16.7885 6.19196C17.2994 6.19255 17.7413 6.37875 18.1143 6.75057C18.4873 7.12239 18.6735 7.56434 18.6729 8.0764C18.6735 8.58728 18.4873 9.02923 18.1143 9.40222C17.7413 9.77522 17.2994 9.96143 16.7885 9.96084C16.2776 9.96025 15.8357 9.77404 15.4627 9.40222ZM14.4488 20.1034L17.6733 16.879C17.764 16.7882 17.8294 16.6839 17.8695 16.5661C17.909 16.4465 17.9175 16.3183 17.8951 16.1816L17.5124 14.2503C16.8383 14.7995 16.0616 15.3487 15.1825 15.8979C14.3033 16.4471 13.6221 16.8277 13.1389 17.0399L14.4488 20.1034ZM23.6943 1.17062C23.8316 3.47402 23.5054 5.58856 22.7158 7.51425C21.9268 9.44053 20.6988 11.2372 19.0318 12.9042C18.964 12.9719 18.8963 13.0456 18.8285 13.1251C18.7607 13.2047 18.6812 13.2783 18.5898 13.3461L19.0901 15.9129C19.1673 16.2458 19.1576 16.5779 19.061 16.909C18.9643 17.2402 18.7967 17.5251 18.558 17.7638L14.0352 22.2866L11.9324 17.3625L7.48561 12.9157L2.57829 10.8297L7.11792 6.29007C7.35598 6.05201 7.63823 5.88172 7.96468 5.77919C8.28995 5.67666 8.61905 5.66399 8.95198 5.74118L11.5365 6.25737L11.9607 5.8331C13.6283 4.16551 15.425 2.9375 17.3506 2.14908C19.2763 1.35947 21.3909 1.03332 23.6943 1.17062Z" fill="#465A69"/>
<path d="M7.86433 16.2559C8.62621 16.8952 9.10292 17.811 9.18961 18.8017C9.27629 19.7925 8.96583 20.7771 8.32654 21.539C6.71957 23.4541 1.13515 24.2754 1.13515 24.2754C1.13515 24.2754 0.974239 18.6332 2.58121 16.7181C3.2205 15.9562 4.13626 15.4795 5.12704 15.3928C6.11782 15.3062 7.10245 15.6166 7.86433 16.2559Z" fill="#465A69"/>
</svg>
