<svg width="26" height="26" viewBox="0 0 26 26" fill="none" xmlns="http://www.w3.org/2000/svg">
<path d="M-43 -428C-43 -429.105 -42.1046 -430 -41 -430H1347C1348.1 -430 1349 -429.105 1349 -428V550C1349 551.105 1348.1 552 1347 552H-41C-42.1046 552 -43 551.105 -43 550V-428Z" fill="white"/>
<path d="M-41 -429H1347V-431H-41V-429ZM1348 -428V550H1350V-428H1348ZM1347 551H-41V553H1347V551ZM-42 550V-428H-44V550H-42ZM-41 551C-41.5523 551 -42 550.552 -42 550H-44C-44 551.657 -42.6569 553 -41 553V551ZM1348 550C1348 550.552 1347.55 551 1347 551V553C1348.66 553 1350 551.657 1350 550H1348ZM1347 -429C1347.55 -429 1348 -428.552 1348 -428H1350C1350 -429.657 1348.66 -431 1347 -431V-429ZM-41 -431C-42.6568 -431 -44 -429.657 -44 -428H-42C-42 -428.552 -41.5523 -429 -41 -429V-431Z" fill="#DDDDDD"/>
<path d="M13 25.5C6.1125 25.5 0.5 19.8875 0.5 13C0.5 6.1125 6.1125 0.5 13 0.5C19.8875 0.5 25.5 5.55 25.5 11.75C25.5 15.8875 22.1375 19.25 18 19.25H15.7875C15.4375 19.25 15.1625 19.525 15.1625 19.875C15.1625 20.025 15.225 20.1625 15.325 20.2875C15.8375 20.875 16.125 21.6125 16.125 22.375C16.125 23.2038 15.7958 23.9987 15.2097 24.5847C14.6237 25.1708 13.8288 25.5 13 25.5ZM13 3C7.4875 3 3 7.4875 3 13C3 18.5125 7.4875 23 13 23C13.35 23 13.625 22.725 13.625 22.375C13.6211 22.2129 13.559 22.0576 13.45 21.9375C12.9375 21.3625 12.6625 20.625 12.6625 19.875C12.6625 19.0462 12.9917 18.2513 13.5778 17.6653C14.1638 17.0792 14.9587 16.75 15.7875 16.75H18C20.7625 16.75 23 14.5125 23 11.75C23 6.925 18.5125 3 13 3Z" fill="#465A69"/>
<path d="M6.125 14.25C7.16053 14.25 8 13.4105 8 12.375C8 11.3395 7.16053 10.5 6.125 10.5C5.08947 10.5 4.25 11.3395 4.25 12.375C4.25 13.4105 5.08947 14.25 6.125 14.25Z" fill="#465A69"/>
<path d="M9.875 9.25C10.9105 9.25 11.75 8.41053 11.75 7.375C11.75 6.33947 10.9105 5.5 9.875 5.5C8.83947 5.5 8 6.33947 8 7.375C8 8.41053 8.83947 9.25 9.875 9.25Z" fill="#465A69"/>
<path d="M16.125 9.25C17.1605 9.25 18 8.41053 18 7.375C18 6.33947 17.1605 5.5 16.125 5.5C15.0895 5.5 14.25 6.33947 14.25 7.375C14.25 8.41053 15.0895 9.25 16.125 9.25Z" fill="#465A69"/>
<path d="M19.875 14.25C20.9105 14.25 21.75 13.4105 21.75 12.375C21.75 11.3395 20.9105 10.5 19.875 10.5C18.8395 10.5 18 11.3395 18 12.375C18 13.4105 18.8395 14.25 19.875 14.25Z" fill="#465A69"/>
</svg>
