<svg xmlns="http://www.w3.org/2000/svg" xmlns:xlink="http://www.w3.org/1999/xlink" viewBox="0 0 222.45 152.77"><defs><style>.cls-1{isolation:isolate;}.cls-2{fill:url(#Degradado_sin_nombre_9);}.cls-3{fill:url(#Degradado_sin_nombre_9-2);}.cls-4{fill:url(#Degradado_sin_nombre_9-3);}.cls-5,.cls-8{mix-blend-mode:multiply;opacity:0.2;}.cls-6,.cls-8{fill:#47128d;}.cls-7{fill:url(#Degradado_sin_nombre_9-4);}.cls-10,.cls-9{mix-blend-mode:soft-light;}.cls-9{fill:url(#Degradado_sin_nombre_22);}.cls-10{fill:url(#Degradado_sin_nombre_22-2);}</style><linearGradient id="Degradado_sin_nombre_9" x1="-0.69" y1="108.18" x2="179.55" y2="-30.16" gradientUnits="userSpaceOnUse"><stop offset="0" stop-color="#fb3d25"/><stop offset="1" stop-color="#4b269f"/></linearGradient><linearGradient id="Degradado_sin_nombre_9-2" x1="53.19" y1="178.4" x2="233.44" y2="40.06" xlink:href="#Degradado_sin_nombre_9"/><linearGradient id="Degradado_sin_nombre_9-3" x1="-20.51" y1="82.38" x2="159.76" y2="-55.99" xlink:href="#Degradado_sin_nombre_9"/><linearGradient id="Degradado_sin_nombre_9-4" x1="28.14" y1="145.76" x2="208.38" y2="7.42" xlink:href="#Degradado_sin_nombre_9"/><linearGradient id="Degradado_sin_nombre_22" x1="103.77" y1="34.77" x2="103.77" y2="84.35" gradientUnits="userSpaceOnUse"><stop offset="0" stop-color="#fbff25"/><stop offset="1" stop-color="#ec1d68"/></linearGradient><linearGradient id="Degradado_sin_nombre_22-2" x1="17.63" y1="43.22" x2="23.87" y2="56.45" xlink:href="#Degradado_sin_nombre_22"/></defs><g class="cls-1"><g id="Layer_1" data-name="Layer 1"><path class="cls-2" d="M79.87,130a26.64,26.64,0,0,0,2.74,6.45c-6.72,2.52-13.25,4.68-19.5,6.43-3.06.87-6,1.63-9,2.3a109.83,109.83,0,0,1-23.91,3.12c-12.21,0-20.47-3.36-24.31-10-6-10.33.32-26,18.16-45.2,2.81-3,5.87-6.1,9.14-9.18q4.55-4.28,9.61-8.57c-3.08-2.62-6-5.24-8.84-7.87-3.56-3.31-6.88-6.62-9.91-9.89C6.24,38.39,0,22.76,5.92,12.42S28.56-.29,54.14,5.55C59.62,6.8,65.36,8.39,71.3,10.32q6.11,2,12.49,4.39a72.47,72.47,0,0,0-8,4.51q-6-2.12-11.65-3.8c-4-1.18-7.8-2.2-11.52-3.05A102.45,102.45,0,0,0,30.34,9.48c-9.42,0-15.89,2.18-18.35,6.44C7.89,23,14.33,36.82,29.21,52.86c2,2.16,4.15,4.35,6.4,6.53q4,3.91,8.48,7.83a71.29,71.29,0,0,0-1,10.41c0,2.22,0,4.43.18,6.6-3.23,2.86-6.29,5.71-9.14,8.54-1.72,1.72-3.38,3.42-4.95,5.12-14.88,16-21.32,29.85-17.22,36.94s19.27,8.42,40.6,3.55c1.44-.33,2.9-.68,4.37-1.06A224.36,224.36,0,0,0,79.87,130Z" transform="translate(-3.73 -2.43)"/><path class="cls-3" d="M205.85,93.13C223.69,112.37,230,128,224,138.33c-3.84,6.64-12.1,10-24.3,10a109.91,109.91,0,0,1-23.92-3.12c-2.92-.67-5.91-1.43-9-2.3-4.42-1.24-9-2.68-13.64-4.31a72.42,72.42,0,0,0,6.84-5.07c4.44,1.45,8.77,2.72,13,3.79,1.47.38,2.93.73,4.37,1.06,21.33,4.87,36.5,3.54,40.6-3.55s-2.35-20.9-17.23-36.94c-1.57-1.7-3.23-3.4-5-5.12Q191,88,185.44,83.19c.09-1.55.15-3.11.14-4.69a72,72,0,0,0-.83-10.34c3.37-2.92,6.57-5.85,9.56-8.76q3.38-3.28,6.4-6.54C215.59,36.82,222,23,217.94,15.92c-2.47-4.26-8.94-6.44-18.36-6.44a102.29,102.29,0,0,0-22.24,2.89q-5.58,1.28-11.53,3.05c-4,1.19-8.14,2.54-12.35,4A71.93,71.93,0,0,0,145.54,15c4.45-1.71,8.82-3.25,13.08-4.63,5.94-1.92,11.68-3.52,17.16-4.77C201.36-.29,218,2.09,224,12.42s-.31,26-18.15,45.2q-4.56,4.91-9.91,9.9-4.22,3.93-8.85,7.86,5.06,4.29,9.61,8.57Q201.61,88.56,205.85,93.13Z" transform="translate(-3.73 -2.43)"/><path class="cls-4" d="M34,50.38a12.84,12.84,0,1,1-2.72-7.91A12.84,12.84,0,0,1,34,50.38Z" transform="translate(-3.73 -2.43)"/><g class="cls-5"><path class="cls-6" d="M43.12,77.63c0,2.22,0,4.43.18,6.6-3.23,2.86-6.29,5.71-9.14,8.54A79.82,79.82,0,0,1,33.22,84q4.55-4.28,9.61-8.57c-3.08-2.62-6-5.24-8.84-7.87a78.26,78.26,0,0,1,1.62-8.12q4,3.91,8.48,7.83A71.29,71.29,0,0,0,43.12,77.63Z" transform="translate(-3.73 -2.43)"/><path class="cls-6" d="M71.3,10.32q6.11,2,12.49,4.39a72.47,72.47,0,0,0-8,4.51q-6-2.12-11.65-3.8A80.5,80.5,0,0,1,71.3,10.32Z" transform="translate(-3.73 -2.43)"/><path class="cls-6" d="M79.87,130a26.64,26.64,0,0,0,2.74,6.45c-6.72,2.52-13.25,4.68-19.5,6.43A75.78,75.78,0,0,1,57,137.32,224.36,224.36,0,0,0,79.87,130Z" transform="translate(-3.73 -2.43)"/><path class="cls-6" d="M153.46,19.47A71.93,71.93,0,0,0,145.54,15c4.45-1.71,8.82-3.25,13.08-4.63a80.5,80.5,0,0,1,7.19,5.1C161.8,16.61,157.67,18,153.46,19.47Z" transform="translate(-3.73 -2.43)"/><path class="cls-6" d="M160,133.53c4.44,1.45,8.77,2.72,13,3.79a77.63,77.63,0,0,1-6.16,5.59c-4.42-1.24-9-2.68-13.64-4.31A72.42,72.42,0,0,0,160,133.53Z" transform="translate(-3.73 -2.43)"/><path class="cls-6" d="M196.7,84a79.82,79.82,0,0,1-.94,8.82Q191,88,185.44,83.19c.09-1.55.15-3.11.14-4.69a72,72,0,0,0-.83-10.34c3.37-2.92,6.57-5.85,9.56-8.76a81,81,0,0,1,1.63,8.12q-4.22,3.93-8.85,7.86Q192.15,79.67,196.7,84Z" transform="translate(-3.73 -2.43)"/></g><path class="cls-7" d="M189.61,76.11a76.36,76.36,0,0,0-2.52-16.65,76.09,76.09,0,0,0-28-40.87A74.34,74.34,0,0,0,128.64,5.25a75.85,75.85,0,0,0-33,1.13A74.84,74.84,0,0,0,46.77,47.69,72.61,72.61,0,0,0,41.7,63.25a74.53,74.53,0,0,0-1.44,16.24,58.35,58.35,0,0,0,9.28,30.56,107.49,107.49,0,0,1-3.77-15.23,88.17,88.17,0,0,1-1.15-15.35A73.54,73.54,0,0,1,46.48,64.3,67.51,67.51,0,0,1,51.63,50a67.94,67.94,0,0,1,75.42-36.87,65.83,65.83,0,0,1,14.09,4.74,66.88,66.88,0,0,1,38.92,58.61,65.49,65.49,0,0,1-5.5,28.71,67.32,67.32,0,0,1-17.31,23.54,66.53,66.53,0,0,1-54.74,15.67,27,27,0,0,1-3.47-.73l-1.55-.41-1.49-.6-.75-.29-.7-.39-1.42-.75-1.31-.93-.66-.45-.6-.54-1.21-1.06-1.08-1.19a8.2,8.2,0,0,1-1-1.26c-.31-.44-.66-.85-.94-1.31a22.37,22.37,0,0,1-1.5-2.87,13.14,13.14,0,0,1-.62-1.5l-.49-1.55a21.1,21.1,0,0,1-.74-6.42,22,22,0,0,1,.34-3.23,14.52,14.52,0,0,1,.38-1.58,10.76,10.76,0,0,1,.47-1.56c.66-1.87,1.94-4.49,3-6.83l3.31-7.19c4.43-9.57,8.79-19.17,13.15-28.78q5-11.11,10.06-22.25c3.08,6.74,6.25,13.43,9.45,20.11l6.43,13.26,6.54,13.2,6.1,12.1-.17-.1a45.67,45.67,0,0,0-7-3.39,38.53,38.53,0,0,0-7.47-2.09,31.66,31.66,0,0,0-7.71-.43,34.73,34.73,0,0,0-3.81.45,32.83,32.83,0,0,0-3.69,1,29.9,29.9,0,0,0-6.7,3.13l0,0a35.76,35.76,0,0,1,14.22-1.73c1.17.08,2.33.29,3.48.47s2.29.49,3.4.86a39.19,39.19,0,0,1,6.48,2.57,52.66,52.66,0,0,1,6,3.55l.72.5.18.13.37.22a3.91,3.91,0,0,0,.85.4,5.1,5.1,0,0,0,3.82-.14,4.13,4.13,0,0,0,.65-.36,5.14,5.14,0,0,0,2.1-6.21l-6.08-13.67-6.11-13.41L129.52,67.8c-4.2-8.88-8.44-17.74-12.88-26.5l-2.84-6.06-3.09,6.06c-4.78,9.4-9.47,18.85-14.16,28.3S87.14,88.49,82.52,98L79,105.07c-1.16,2.43-2.32,4.5-3.51,7.58a16.74,16.74,0,0,0-.71,2.21c-.19.75-.46,1.48-.58,2.25a31.19,31.19,0,0,0-.57,4.62,30.61,30.61,0,0,0,.91,9.24l.67,2.23a21.31,21.31,0,0,0,.84,2.18,31.12,31.12,0,0,0,2.11,4.15c.4.67.88,1.29,1.32,1.93A14.26,14.26,0,0,0,81,143.31l1.56,1.75c.56.54,1.15,1.06,1.73,1.59l.87.78,1,.69L88,149.47,90,150.61l1,.57,1.08.45,2.18.87c.75.24,1.5.43,2.26.64a34.64,34.64,0,0,0,4.26.93,75.13,75.13,0,0,0,33.53-1.73,75.56,75.56,0,0,0,29.46-16.11,76.21,76.21,0,0,0,19.7-27.15A75.14,75.14,0,0,0,189.61,76.11ZM143.1,109.89v0s0,0,0,0l-.09,0A.14.14,0,0,1,143.1,109.89Z" transform="translate(-3.73 -2.43)"/><path class="cls-8" d="M145.83,114.44a4.13,4.13,0,0,1-.65.36,5.1,5.1,0,0,1-3.82.14,3.91,3.91,0,0,1-.85-.4l-.37-.22-.18-.13-.72-.5a52.66,52.66,0,0,0-6-3.55,39.19,39.19,0,0,0-6.48-2.57c-1.11-.37-2.26-.6-3.4-.86s-2.31-.39-3.48-.47A35.76,35.76,0,0,0,105.65,108l0,0C107,107.25,126.07,97.6,145.83,114.44Z" transform="translate(-3.73 -2.43)"/><polygon class="cls-9" points="133.13 82.02 109.96 42.75 74.41 104.48 110.07 32.81 133.13 82.02"/><path class="cls-10" d="M31.31,42.47c-13.74-.31-17.28,10.41-18.06,18a12.85,12.85,0,1,1,18.06-18Z" transform="translate(-3.73 -2.43)"/></g></g></svg>