<svg width="31" height="30" viewBox="0 0 31 30" fill="none" xmlns="http://www.w3.org/2000/svg">
<path d="M3.79163 25V22.5H7.26724L6.76169 22.0625C5.66635 21.1042 4.8975 20.0104 4.45515 18.7812C4.0128 17.5521 3.79163 16.3125 3.79163 15.0625C3.79163 12.75 4.4918 10.6925 5.89216 8.89C7.29251 7.0875 9.12005 5.895 11.3748 5.3125V7.9375C9.85815 8.47917 8.63642 9.40125 7.70959 10.7037C6.78276 12.0062 6.31934 13.4592 6.31934 15.0625C6.31934 16 6.49839 16.9117 6.85648 17.7975C7.21458 18.6833 7.77278 19.5008 8.53109 20.25L8.84706 20.5625V17.5H11.3748V25H3.79163ZM15.1664 21.25C14.8083 21.25 14.5083 21.13 14.2665 20.89C14.0247 20.65 13.9033 20.3533 13.9025 20C13.9016 19.6467 14.023 19.35 14.2665 19.11C14.51 18.87 14.8099 18.75 15.1664 18.75C15.5228 18.75 15.8231 18.87 16.0675 19.11C16.3118 19.35 16.4327 19.6467 16.4302 20C16.4277 20.3533 16.3064 20.6504 16.0662 20.8912C15.8261 21.1321 15.5261 21.2517 15.1664 21.25ZM13.9025 16.25V8.75H16.4302V16.25H13.9025ZM18.9579 24.6875V22.0625C20.4746 21.5208 21.6963 20.5992 22.6231 19.2975C23.5499 17.9958 24.0134 16.5425 24.0134 14.9375C24.0134 14 23.8343 13.0887 23.4762 12.2037C23.1181 11.3187 22.5599 10.5008 21.8016 9.75L21.4856 9.4375V12.5H18.9579V5H26.5411V7.5H23.0655L23.571 7.9375C24.6032 8.95833 25.3564 10.0679 25.8308 11.2662C26.3052 12.4646 26.5419 13.6883 26.5411 14.9375C26.5411 17.25 25.8409 19.3075 24.4405 21.11C23.0402 22.9125 21.2126 24.105 18.9579 24.6875Z" fill="#5D778D"/>
</svg>
