<svg width="30" height="30" viewBox="0 0 30 30" fill="none" xmlns="http://www.w3.org/2000/svg">
<g clip-path="url(#clip0_13_340)">
<path d="M1.3994 15.8882H3.84329C4.26472 21.6118 8.7436 26.213 14.3179 26.6448V29.1118C14.3179 29.6052 14.6912 30 15.1728 30C15.6664 30 16.0397 29.6052 16.0397 29.1118V26.6448C21.614 26.213 26.0929 21.6118 26.5143 15.8877H28.9582C29.0721 15.8882 29.1851 15.8657 29.2905 15.8213C29.3959 15.7769 29.4916 15.7115 29.5722 15.629C29.6528 15.5464 29.7167 15.4484 29.7601 15.3404C29.8035 15.2325 29.8256 15.1168 29.8251 15C29.8251 14.5066 29.4397 14.1241 28.9582 14.1241H26.5143C26.0929 8.40054 21.614 3.79929 16.0397 3.3675V0.888214C16.0397 0.394821 15.6658 0 15.1728 0C14.6912 0 14.3179 0.394821 14.3179 0.888214V3.3675C8.7436 3.79929 4.26472 8.40054 3.84329 14.1246H1.3994C0.917842 14.1241 0.596802 14.5061 0.596802 15C0.596802 15.4934 0.917842 15.8882 1.3994 15.8882ZM15.1728 10.1277C15.6664 10.1277 16.0397 9.73286 16.0397 9.23946V5.37857C20.5667 5.7975 24.0819 9.43661 24.4798 14.1241H20.8072C20.3262 14.1241 19.9403 14.5066 19.9403 15C19.9403 15.4934 20.3256 15.8882 20.8072 15.8882H24.4798C24.0824 20.5634 20.5667 24.2025 16.0397 24.622V20.7605C16.0397 20.2677 15.6664 19.8846 15.1728 19.8846C14.6912 19.8846 14.3179 20.2671 14.3179 20.7605V24.622C9.7909 24.2025 6.27566 20.5634 5.87829 15.8882H9.55038C10.0314 15.8882 10.4173 15.4934 10.4173 15C10.4173 14.5066 10.0319 14.1241 9.55038 14.1241H5.87776C6.27514 9.43661 9.79038 5.7975 14.3174 5.37857V9.23946C14.3174 9.73232 14.6912 10.1277 15.1728 10.1277Z" fill="#5D778D"/>
</g>
<defs>
<clipPath id="clip0_13_340">
<rect width="29.2806" height="30" fill="white" transform="translate(0.544434)"/>
</clipPath>
</defs>
</svg>
